<?xml version="1.0" standalone="no"?>
<!DOCTYPE svg PUBLIC "-//W3C//DTD SVG 20010904//EN"
 "http://www.w3.org/TR/2001/REC-SVG-20010904/DTD/svg10.dtd">
<svg version="1.0" xmlns="http://www.w3.org/2000/svg"
 width="1536.000000pt" height="1536.000000pt" viewBox="0 0 1536.000000 1536.000000"
 preserveAspectRatio="xMidYMid meet">
<metadata>
Created by potrace 1.14, written by Peter Selinger 2001-2017
</metadata>
<g transform="translate(0.000000,1536.000000) scale(0.100000,-0.100000)"
fill="#000000" stroke="none">
<path d="M7030 14263 c-136 -5 -439 -32 -588 -53 -277 -39 -529 -101 -725
-178 l-98 -38 -2544 -2477 -2543 -2477 -41 -167 c-126 -522 -182 -982 -182
-1498 -1 -460 43 -816 146 -1195 37 -137 112 -355 149 -430 19 -40 3494 -4568
3552 -4629 l22 -24 84 33 c355 142 695 367 977 649 456 455 735 1009 806 1600
9 69 20 158 25 196 29 216 -11 483 -116 772 -60 166 -112 283 -458 1026 -323
694 -326 702 -362 962 -22 158 -14 468 15 635 79 450 265 889 584 1378 109
167 143 201 357 354 149 107 272 180 445 264 471 228 951 295 1460 202 364
-66 797 -241 1070 -432 498 -349 828 -804 960 -1327 57 -222 69 -334 69 -619
0 -275 -9 -372 -55 -610 -56 -284 -50 -270 -279 -660 -324 -554 -481 -851
-585 -1115 -50 -127 -105 -325 -105 -379 0 -18 -9 -82 -19 -142 -32 -180 -44
-338 -38 -486 25 -550 212 -992 677 -1606 l85 -112 450 -276 c247 -153 470
-284 495 -292 27 -9 87 -15 150 -15 133 -1 196 21 275 96 30 29 884 1088 1898
2355 l1843 2303 37 217 c84 487 113 744 127 1112 24 647 -67 1211 -272 1690
l-43 100 -2534 2508 -2534 2507 -111 27 c-711 177 -1737 278 -2526 251z"/>
</g>
</svg>
