<svg xmlns="http://www.w3.org/2000/svg" aria-hidden="true" role="img" width="1em" height="1em" preserveAspectRatio="xMidYMid meet" viewBox="0 0 256 256"><path fill="currentColor" d="M232 136v64a8 8 0 0 1-8 8H32a8 8 0 0 1-8-8v-64a8 8 0 0 1 8-8h192a8 8 0 0 1 8 8Z" opacity=".2"/><path fill="currentColor" d="M240 136v64a16 16 0 0 1-16 16H32a16 16 0 0 1-16-16v-64a16 16 0 0 1 16-16h48a8 8 0 0 1 0 16H32v64h192v-64h-48a8 8 0 0 1 0-16h48a16 16 0 0 1 16 16Zm-117.7-2.3a8.2 8.2 0 0 0 11.4 0l48-48a8.1 8.1 0 0 0-11.4-11.4L136 108.7V24a8 8 0 0 0-16 0v84.7L85.7 74.3a8.1 8.1 0 0 0-11.4 11.4ZM200 168a12 12 0 1 0-12 12a12 12 0 0 0 12-12Z"/></svg>