<svg xmlns="http://www.w3.org/2000/svg" aria-hidden="true" role="img" width="1em" height="1em" preserveAspectRatio="xMidYMid meet" viewBox="0 0 256 256"><path fill="currentColor" d="M130.3 224a96.3 96.3 0 0 0 83.9-53.6L159.9 137a7.2 7.2 0 0 0-3.1-1.1l-22.9-3.1a7.8 7.8 0 0 0-8.3 4.7l-13.7 30.7a8 8 0 0 0 1.4 8.7l18.8 20.3a8.2 8.2 0 0 1 2 7l-3.8 19.8ZM65 55.6l-9 21.2a8 8 0 0 0-.1 5.9l11.5 30.6a7.9 7.9 0 0 0 5.8 5.1l5.4 1.1l8.3-19.7a8.1 8.1 0 0 1 7.4-4.9h21.4a8.6 8.6 0 0 0 3.8-1l12.3-6.8a7.2 7.2 0 0 0 1.5-1.1l26.9-24.3a8.1 8.1 0 0 0 1.6-9.8l-9.3-16.8A98.5 98.5 0 0 0 128 32a95.4 95.4 0 0 0-63 23.6Z" opacity=".2"/><path fill="currentColor" d="M221.6 173.3A102.9 102.9 0 0 0 232 128a104.2 104.2 0 0 0-77.2-100.5h-.5A103.8 103.8 0 0 0 60.4 49l-1.3 1.2A103.9 103.9 0 0 0 128 232h2.4a104.3 104.3 0 0 0 90.6-57.4ZM216 128a89.3 89.3 0 0 1-5.5 30.7l-46.4-28.5a15.4 15.4 0 0 0-6.3-2.3l-22.8-3a16.1 16.1 0 0 0-15.3 6.8h-8.6l-3.8-7.9a15.7 15.7 0 0 0-11-8.7l-6.6-1.4l4.6-10.8h21.4a16.1 16.1 0 0 0 7.7-2l12.2-6.8a16.1 16.1 0 0 0 3-2.1l26.9-24.4a15.7 15.7 0 0 0 4.5-16.9a88 88 0 0 1 46 77.3Zm-68.8-85.9l7.6 13.7l-26.9 24.3l-12.2 6.8H94.3a15.9 15.9 0 0 0-14.7 9.8l-5.3 12.4l-10.9-29.2l8.2-19.3a87.8 87.8 0 0 1 75.6-18.5ZM40 128a87.1 87.1 0 0 1 9.5-39.7l10.4 27.9a16.1 16.1 0 0 0 11.6 10l5.5 1.2h.1l15.8 3.4l3.8 7.9a16.4 16.4 0 0 0 14.4 9h1.2l-7.7 17.2a16.1 16.1 0 0 0 2.8 17.4l18.8 20.4l-2.5 13.2A88.1 88.1 0 0 1 40 128Zm100.1 87.2l1.8-9.5a16 16 0 0 0-3.9-13.9l-18.8-20.3l12.7-28.7h.1l.9-2.1l22.8 3.1l47.8 29.4a88.5 88.5 0 0 1-63.4 42Z"/></svg>