<svg xmlns="http://www.w3.org/2000/svg" aria-hidden="true" role="img" width="1em" height="1em" preserveAspectRatio="xMidYMid meet" viewBox="0 0 256 256"><path fill="currentColor" d="m200 152.9l-36.8 36.8a8.5 8.5 0 0 1-7.6 2.1l-58-14.5a8 8 0 0 1-2.9-1.5L40 133.1l32.6-61.3l51.3-15a8 8 0 0 1 5.5.4L164 72.9h-20.7a7.9 7.9 0 0 0-5.6 2.3l-39.2 39.1a8.1 8.1 0 0 0 .9 12.1l5.4 4.1a32.1 32.1 0 0 0 38.4 0l12.8-9.6Z" opacity=".2"/><path fill="currentColor" d="m251.3 107.2l-24.6-47.1a16 16 0 0 0-21.3-6.9l-23.3 11.7h-16.4l-33-15a16.6 16.6 0 0 0-11-.8L73 63.3L50.6 52.1a16.1 16.1 0 0 0-21.3 7L4.7 106.2a16 16 0 0 0-1.1 12.3a16.3 16.3 0 0 0 8.1 9.4l24 12l54 42.2a15.2 15.2 0 0 0 6 2.9l58 14.5a15.8 15.8 0 0 0 3.8.5a16.5 16.5 0 0 0 11.4-4.7l36.8-36.8h.1c0-.1.1-.1.1-.2h.2l14.9-17.7l23.3-11.7a15.8 15.8 0 0 0 8.1-9.3a16.2 16.2 0 0 0-1.1-12.4ZM198.7 142l-38-27.6a8 8 0 0 0-9.5.1l-12.8 9.6a24.3 24.3 0 0 1-28.8 0l-5.4-4.1l39.1-39.1h35.9l27.2 52.2ZM43.5 66.5l17.6 8.8l-24.6 47.1l-17.6-8.8Zm114 117.5l-57.9-14.5l-49.4-38.6l27.2-52.2l48.7-14.2l7.7 3.5l-1.8 1.5l-39.1 39.2a15.9 15.9 0 0 0 1.7 24.1l5.4 4.1a40.2 40.2 0 0 0 48 0l8.1-6.1l31.6 23Zm79.6-69.4l-17.6 8.9l-24.6-47.1l17.6-8.9l24.6 47.1ZM119.8 214.8a8.1 8.1 0 0 1-7.8 6.1a6.3 6.3 0 0 1-1.9-.3l-30.2-7.5a15.7 15.7 0 0 1-6.6-3.5L50.8 190a7.9 7.9 0 1 1 10.4-12l22.6 19.6l30.1 7.5a8.1 8.1 0 0 1 5.9 9.7Z"/></svg>