<svg xmlns="http://www.w3.org/2000/svg" aria-hidden="true" role="img" width="1em" height="1em" preserveAspectRatio="xMidYMid meet" viewBox="0 0 256 256"><path fill="currentColor" d="M93.2 122.8A70.3 70.3 0 0 1 88 96a72 72 0 1 1 72 72a70.3 70.3 0 0 1-26.8-5.2L120 176H96v24H72v24H32v-40l61.2-61.2Z" opacity=".2"/><circle cx="180" cy="76" r="12" fill="currentColor"/><path fill="currentColor" d="M160 16a80.1 80.1 0 0 0-76.1 104.8l-57.6 57.5A8.1 8.1 0 0 0 24 184v40a8 8 0 0 0 8 8h40a8 8 0 0 0 8-8v-16h16a8 8 0 0 0 8-8v-16h16a8.1 8.1 0 0 0 5.7-2.3l9.5-9.6A80 80 0 1 0 160 16Zm0 144a64 64 0 0 1-23.7-4.5a7.9 7.9 0 0 0-8.8 1.7L116.7 168H96a8 8 0 0 0-8 8v16H72a8 8 0 0 0-8 8v16H40v-28.7l58.8-58.8a7.9 7.9 0 0 0 1.7-8.8A64 64 0 1 1 160 160Z"/></svg>