<?xml version="1.0" encoding="UTF-8" standalone="no"?>
<!DOCTYPE svg PUBLIC "-//W3C//DTD SVG 1.1//EN" "http://www.w3.org/Graphics/SVG/1.1/DTD/svg11.dtd">
<svg width="100%" height="100%" viewBox="0 0 192 192" version="1.1" xmlns="http://www.w3.org/2000/svg" xmlns:xlink="http://www.w3.org/1999/xlink" xml:space="preserve" xmlns:serif="http://www.serif.com/" style="fill-rule:evenodd;clip-rule:evenodd;stroke-linejoin:round;stroke-miterlimit:1.41421;">
    <g transform="matrix(-0.373711,-1.19967,1.19967,-0.373711,22.4695,256.512)">
        <g id="Layer1">
            <path d="M52.329,41.027L106.849,20.901C118.012,19.672 130.026,24.498 138.678,29.963L170.667,92.908C172.093,104.751 163.397,123.846 158.607,131.43L96,164.729C85.372,166.233 74.973,161.831 65.799,156.908L32.86,108.085C31.784,106.421 32.238,104.694 33.332,102.94L41.281,96C48.894,93.009 56.65,91.16 65.245,96C68.735,97.191 73.425,102.065 80.664,110.203C90.438,116.523 101.242,117.857 111.49,109.29C120.981,100.243 122.6,90.026 117.813,78.857C110.846,69.831 103.564,65.52 96,65.426L86.052,66.76C80.421,67.468 74.424,68.819 69.315,65.996C60.086,62.456 52.778,52.213 52.329,41.027Z" style="fill:rgb(176,82,192);"/>
        </g>
    </g>
</svg>
