<svg xmlns="http://www.w3.org/2000/svg" aria-hidden="true" role="img" width="1em" height="1em" preserveAspectRatio="xMidYMid meet" viewBox="0 0 256 256"><path fill="currentColor" d="M200 56H56a23.9 23.9 0 0 0-24 24v112a23.9 23.9 0 0 0 24 24h144a23.9 23.9 0 0 0 24-24V80a23.9 23.9 0 0 0-24-24Zm-36 128H92a20 20 0 0 1 0-40h72a20 20 0 0 1 0 40Z" opacity=".2"/><path fill="currentColor" d="M200 48h-64V16a8 8 0 0 0-16 0v32H56a32.1 32.1 0 0 0-32 32v112a32.1 32.1 0 0 0 32 32h144a32.1 32.1 0 0 0 32-32V80a32.1 32.1 0 0 0-32-32Zm16 144a16 16 0 0 1-16 16H56a16 16 0 0 1-16-16V80a16 16 0 0 1 16-16h144a16 16 0 0 1 16 16Zm-52-56H92a28 28 0 0 0 0 56h72a28 28 0 0 0 0-56Zm-24 16v24h-24v-24Zm-60 12a12 12 0 0 1 12-12h8v24h-8a12 12 0 0 1-12-12Zm84 12h-8v-24h8a12 12 0 0 1 0 24Zm-92-68a12 12 0 1 1 12 12a12 12 0 0 1-12-12Zm88 0a12 12 0 1 1 12 12a12 12 0 0 1-12-12Z"/></svg>