<svg xmlns="http://www.w3.org/2000/svg" aria-hidden="true" role="img" width="1em" height="1em" preserveAspectRatio="xMidYMid meet" viewBox="0 0 256 256"><circle cx="128" cy="128" r="88" fill="currentColor" opacity=".2"/><path fill="currentColor" d="M128 32a96 96 0 1 0 96 96a96.2 96.2 0 0 0-96-96Zm0 176a80 80 0 1 1 80-80a80.1 80.1 0 0 1-80 80Z"/><path fill="currentColor" d="m161.9 82.7l-39.6 39.6a8.1 8.1 0 0 0 0 11.4a8.2 8.2 0 0 0 11.4 0l39.6-39.6a8.1 8.1 0 1 0-11.4-11.4ZM104 16h48a8 8 0 0 0 0-16h-48a8 8 0 0 0 0 16Z"/></svg>